<?xml version="1.0" standalone="no"?>
<!DOCTYPE svg PUBLIC "-//W3C//DTD SVG 20010904//EN"
 "http://www.w3.org/TR/2001/REC-SVG-20010904/DTD/svg10.dtd">
<svg version="1.0" xmlns="http://www.w3.org/2000/svg"
 width="445.000000pt" height="228.000000pt" viewBox="0 0 445.000000 228.000000"
 preserveAspectRatio="xMidYMid meet">

<g transform="translate(0.000000,228.000000) scale(0.100000,-0.100000)"
fill="#000000" stroke="none">
<path d="M115 2251 c-49 -22 -91 -69 -105 -119 -8 -26 -10 -339 -8 -1014 l3
-976 30 -44 c18 -25 49 -52 75 -65 l44 -23 2072 0 2071 0 44 23 c24 13 58 43
74 66 l30 43 3 975 c2 655 -1 987 -8 1013 -14 51 -55 98 -105 121 -38 18 -123
19 -2110 19 -1987 0 -2072 -1 -2110 -19z m2939 -311 c64 -39 61 -5 61 -775 0
-770 3 -736 -61 -775 -58 -36 -133 -17 -169 43 -19 31 -20 55 -20 737 0 647 1
707 17 729 43 60 114 77 172 41z m557 -19 l39 -39 0 -712 c0 -705 0 -712 -21
-741 -56 -79 -158 -77 -208 4 -21 34 -21 41 -21 731 0 769 -3 736 63 776 18
11 49 20 71 20 31 0 45 -7 77 -39z m-2218 -397 c79 -26 145 -61 162 -88 41
-62 24 -139 -38 -176 -44 -27 -84 -25 -153 8 -52 24 -71 27 -161 27 -87 0
-105 -3 -129 -21 -53 -39 -50 -104 5 -137 15 -9 92 -39 170 -66 157 -55 207
-81 265 -137 55 -54 78 -112 78 -198 0 -122 -65 -225 -175 -279 -73 -36 -126
-46 -227 -47 -148 0 -286 50 -381 140 -46 43 -49 49 -49 97 0 40 5 58 25 82
50 58 120 62 185 11 59 -45 120 -72 181 -77 115 -11 189 17 189 72 0 33 -23
46 -176 98 -221 76 -298 128 -351 236 -24 48 -28 67 -27 138 1 67 6 92 28 137
36 73 117 147 194 175 108 41 270 43 385 5z m1031 -5 c121 -45 233 -146 292
-262 57 -112 82 -298 48 -357 -36 -60 -35 -60 -458 -60 -212 0 -386 -3 -386
-7 0 -5 14 -32 30 -61 99 -172 350 -200 524 -57 54 44 94 57 140 44 54 -15 86
-60 86 -122 0 -50 -2 -53 -60 -109 -173 -164 -458 -205 -680 -96 -86 41 -196
151 -239 237 -169 335 -25 736 307 853 113 40 286 39 396 -3z"/>
<path d="M2105 1283 c-59 -20 -155 -110 -173 -160 l-11 -33 295 0 c161 0 294
2 294 5 0 3 -7 22 -15 43 -20 47 -78 108 -130 135 -55 28 -190 34 -260 10z"/>
</g>
</svg>
